<svg version="1.1" id="Layer_1" xmlns="http://www.w3.org/2000/svg" xmlns:xlink="http://www.w3.org/1999/xlink" x="0px" y="0px"
	 width="100%" viewBox="0 0 600 314" enable-background="new 0 0 600 314" xml:space="preserve">
<path fill="none" opacity="1.000000" stroke="#000000" stroke-linecap="round" stroke-linejoin="round" stroke-width="4.000000"
	d="
M56.500004,148.500000 
	C56.166668,149.333328 55.546333,150.165451 55.542767,151.000183 
	C55.482887,165.001907 55.500000,179.003967 55.500000,193.500000 
	C61.322918,193.500000 66.673134,193.284195 71.996101,193.572113 
	C75.864761,193.781372 79.741638,192.540695 83.632263,195.314484 
	C86.884018,197.632797 89.907257,192.746811 94.029221,193.269608 
	C100.754379,194.122543 107.666664,193.500000 114.500656,193.500031 
	C115.482506,189.030212 115.023758,184.495163 114.954475,180.000702 
	C114.792595,169.500687 115.625870,158.984772 114.500000,148.500000 
"/>
<path fill="none" opacity="1.000000" stroke="#000000" stroke-linecap="round" stroke-linejoin="round" stroke-width="6.000000"
	d="
M274.000000,144.000000 
	C285.169159,144.000000 296.338318,144.000000 307.510162,144.000000 
	C308.181427,147.769608 308.430542,151.028137 307.120209,154.625000 
	C296.500000,154.625000 285.744232,154.625000 275.083374,154.625000 
	C274.241547,158.000000 274.241547,161.000000 275.114563,164.500000 
	C286.161713,164.500000 297.330841,164.500000 308.500000,164.500000 
"/>
<path fill="none" opacity="1.000000" stroke="#000000" stroke-linecap="round" stroke-linejoin="round" stroke-width="6.000000"
	d="
M567.000000,159.000000 
	C571.425964,145.244705 570.680237,131.120026 570.274902,116.500000 
	C559.505249,116.500000 549.002625,116.500000 538.500000,116.500000 
"/>
<path fill="none" opacity="1.000000" stroke="#000000" stroke-linecap="round" stroke-linejoin="round" stroke-width="5.000000"
	d="
M373.000000,118.000000 
	C367.669037,118.371475 362.236084,117.110840 357.000000,118.999893 
	C357.000000,128.000000 357.000000,137.000000 357.000000,146.000107 
	C362.236084,147.889160 367.669037,146.628525 373.000000,147.000000 
"/>
<path fill="none" opacity="1.000000" stroke="#000000" stroke-linecap="round" stroke-linejoin="round" stroke-width="4.000000"
	d="
M290.500000,186.500000 
	C290.500000,191.588699 290.500000,196.677399 290.500000,201.766083 
	C290.091980,201.948914 289.683929,202.131729 289.275909,202.314545 
	C285.095123,197.668777 283.379669,191.100891 278.222839,185.759415 
	C277.217682,192.466187 277.138916,197.968857 278.000000,203.500000 
"/>
<path fill="none" opacity="1.000000" stroke="#000000" stroke-linecap="round" stroke-linejoin="round" stroke-width="3.000000"
	d="
M236.000000,185.500000 
	C236.000000,189.000000 235.920059,192.502289 236.020126,195.999420 
	C236.146683,200.422318 238.420898,203.000000 242.000000,203.000000 
	C245.682632,203.000000 247.862900,200.524124 247.981659,195.999512 
	C248.073456,192.501923 248.000000,189.000000 248.000000,185.500000 
"/>
<path fill="none" opacity="1.000000" stroke="#000000" stroke-linecap="round" stroke-linejoin="round" stroke-width="3.000000"
	d="
M438.000000,185.500000 
	C438.000000,189.000000 438.166382,192.509888 437.959229,195.997574 
	C437.680511,200.689667 435.610474,202.953049 432.000000,203.000000 
	C428.207001,203.049301 425.667786,200.178665 425.518005,195.499420 
	C425.422089,192.502487 425.500000,189.500000 425.500000,186.500000 
"/>
<path fill="none" opacity="1.000000" stroke="#000000" stroke-linecap="round" stroke-linejoin="round" stroke-width="3.000000"
	d="
M471.500000,186.000000 
	C474.745392,187.710648 474.078400,191.374527 475.451050,194.025345 
	C476.683350,196.405045 477.556885,198.979736 478.459290,201.514481 
	C478.680481,202.135712 478.795074,202.538254 479.823029,202.492325 
	C483.523193,197.657700 483.334717,190.773392 487.500000,186.000000 
"/>
<path fill="none" opacity="1.000000" stroke="#000000" stroke-linecap="round" stroke-linejoin="round" stroke-width="5.000000"
	d="
M479.000000,146.500000 
	C471.353577,147.598190 463.662109,146.671356 456.000824,147.018372 
	C452.167603,147.191986 448.292786,146.400711 444.500000,147.500000 
"/>
<path fill="none" opacity="1.000000" stroke="#000000" stroke-linecap="round" stroke-linejoin="round" stroke-width="5.000000"
	d="
M96.000000,116.500000 
	C99.644005,121.714180 98.384277,127.582436 97.242729,132.945236 
	C96.558449,136.159821 95.976723,139.265121 96.017052,142.499786 
	C96.110306,149.978622 90.684456,152.882690 83.545563,150.370529 
	C82.231522,149.908127 81.194756,149.994400 79.999992,149.995911 
	C74.075241,150.003464 70.937569,145.090698 72.944412,139.480118 
	C74.561790,134.958389 77.433365,130.907425 78.000000,126.000000 
"/>
<path fill="none" opacity="1.000000" stroke="#000000" stroke-linecap="round" stroke-linejoin="round" stroke-width="6.000000"
	d="
M223.500000,114.500000 
	C223.500000,130.833328 223.500000,147.166672 223.500000,163.500000 
"/>
<path fill="none" opacity="1.000000" stroke="#000000" stroke-linecap="round" stroke-linejoin="round" stroke-width="5.000000"
	d="
M94.500000,113.000000 
	C88.421562,109.271339 81.884964,111.189545 75.504356,111.572586 
	C74.176918,111.652275 73.400833,112.707962 73.413757,114.500626 
	C73.441360,118.329231 73.784248,121.883850 77.000000,124.500000 
"/>
<path fill="none" opacity="1.000000" stroke="#000000" stroke-linecap="round" stroke-linejoin="round" stroke-width="6.000000"
	d="
M394.500000,114.500000 
	C394.500000,130.833328 394.500000,147.166672 394.500000,163.500000 
"/>
<path fill="none" opacity="1.000000" stroke="#000000" stroke-linecap="round" stroke-linejoin="round" stroke-width="5.000000"
	d="
M384.000000,114.000000 
	C384.000000,130.666672 384.000000,147.333328 384.000000,164.000000 
"/>
<path fill="none" opacity="1.000000" stroke="#000000" stroke-linecap="round" stroke-linejoin="round" stroke-width="3.000000"
	d="
M457.750000,202.000000 
	C452.947998,197.946640 451.670898,191.484604 447.122406,186.593887 
	C444.981873,192.316528 446.459045,197.996277 446.000000,203.500000 
"/>
<path fill="none" opacity="1.000000" stroke="#000000" stroke-linecap="round" stroke-linejoin="round" stroke-width="4.000000"
	d="
M54.500000,197.000000 
	C57.358803,197.260803 56.806038,199.795975 57.790302,201.585114 
	C54.166668,203.624664 50.766670,201.880219 47.520264,201.370865 
	C44.724297,200.932175 42.852684,201.191132 40.931755,203.441757 
	C38.725941,206.026184 36.000004,208.166672 33.500004,210.500000 
"/>
<path fill="none" opacity="1.000000" stroke="#000000" stroke-linecap="round" stroke-linejoin="round" stroke-width="4.000000"
	d="
M375.500000,202.500000 
	C370.487305,198.288574 369.448303,191.257111 364.294922,186.324753 
	C362.807526,192.078979 363.815887,197.332214 363.500000,202.500000 
"/>
<path fill="none" opacity="1.000000" stroke="#000000" stroke-linecap="round" stroke-linejoin="round" stroke-width="4.000000"
	d="
M48.500004,184.500000 
	C49.247990,188.302994 49.995975,192.105988 50.837921,196.386703 
	C44.964672,196.898163 40.967449,193.792221 36.500000,192.500000 
"/>
<path fill="none" opacity="1.000000" stroke="#000000" stroke-linecap="round" stroke-linejoin="round" stroke-width="4.000000"
	d="
M49.499996,108.500000 
	C48.116230,112.818054 46.732468,117.136101 45.162895,122.033966 
	C49.649387,122.959305 53.520340,121.077415 57.500000,120.500000 
"/>
<path fill="none" opacity="1.000000" stroke="#000000" stroke-linecap="round" stroke-linejoin="round" stroke-width="3.000000"
	d="
M256.000000,185.500000 
	C256.000000,191.170334 256.000000,196.840668 256.000000,202.318451 
	C259.124054,203.348557 261.830139,202.884567 264.500000,203.000000 
"/>
<path fill="none" opacity="1.000000" stroke="#000000" stroke-linecap="round" stroke-linejoin="round" stroke-width="3.000000"
	d="
M404.000000,185.500000 
	C404.000000,191.170334 404.000000,196.840668 404.000000,202.318451 
	C407.124054,203.348557 409.830139,202.884567 412.500000,203.000000 
"/>
<path fill="none" opacity="1.000000" stroke="#000000" stroke-linecap="round" stroke-linejoin="round" stroke-width="5.000000"
	d="
M119.750000,188.750000 
	C127.242821,196.151794 134.353821,203.990601 143.500000,209.500000 
"/>
<path fill="none" opacity="1.000000" stroke="#000000" stroke-linecap="round" stroke-linejoin="round" stroke-width="5.000000"
	d="
M555.000000,135.000000 
	C555.000000,143.000000 555.000000,151.000000 555.000000,159.000000 
"/>
<path fill="none" opacity="1.000000" stroke="#000000" stroke-linecap="round" stroke-linejoin="round" stroke-width="4.000000"
	d="
M41.999996,116.500000 
	C41.333328,119.666664 40.562611,122.816025 40.032101,126.005341 
	C39.587803,128.676392 40.255161,130.348633 43.506607,129.016129 
	C46.140690,127.936623 48.833332,127.000000 51.500000,126.000000 
"/>
<path fill="none" opacity="1.000000" stroke="#000000" stroke-linecap="round" stroke-linejoin="round" stroke-width="3.000000"
	d="
M509.000000,194.000000 
	C512.635010,194.370239 515.890869,193.934753 517.676941,189.522278 
	C516.284912,184.930222 512.219421,185.561218 508.000000,185.485641 
	C508.000000,191.492371 508.000000,197.496185 508.000000,203.500000 
"/>
<path fill="none" opacity="1.000000" stroke="#000000" stroke-linecap="round" stroke-linejoin="round" stroke-width="4.000000"
	d="
M134.500000,122.500000 
	C134.309174,127.176849 136.004120,131.988388 133.671921,136.670029 
	C130.143860,135.050262 126.821930,133.525131 123.500000,132.000000 
"/>
<path fill="none" opacity="1.000000" stroke="#000000" stroke-linecap="round" stroke-linejoin="round" stroke-width="4.000000"
	d="
M58.500000,103.500000 
	C56.446968,107.306061 54.393940,111.112122 52.138367,115.293671 
	C56.225948,117.692406 60.520439,115.836479 64.500000,116.500000 
"/>
<path fill="none" opacity="1.000000" stroke="#000000" stroke-linecap="round" stroke-linejoin="round" stroke-width="3.000000"
	d="
M398.000000,203.000000 
	C394.617065,197.847275 393.967773,191.369156 389.700195,185.916382 
	C386.203400,191.634933 384.395630,197.705795 382.000000,203.500000 
"/>
<path fill="none" opacity="1.000000" stroke="#000000" stroke-linecap="round" stroke-linejoin="round" stroke-width="7.000000"
	d="
M543.000000,136.000000 
	C543.000000,143.666672 543.000000,151.333328 543.000000,159.000000 
"/>
<path fill="none" opacity="1.000000" stroke="#000000" stroke-linecap="round" stroke-linejoin="round" stroke-width="3.000000"
	d="
M30.500000,132.500000 
	C30.302353,137.423309 31.930317,141.955414 33.461575,146.800995 
	C36.807613,144.953552 39.480019,142.576431 42.000000,140.000000 
"/>
<path fill="none" opacity="1.000000" stroke="#000000" stroke-linecap="round" stroke-linejoin="round" stroke-width="3.000000"
	d="
M67.500000,199.500000 
	C69.854881,202.483063 72.209770,205.466125 74.808235,208.757736 
	C70.781013,211.948517 65.781891,210.642273 61.500000,212.000000 
"/>
<path fill="none" opacity="1.000000" stroke="#000000" stroke-linecap="round" stroke-linejoin="round" stroke-width="4.000000"
	d="
M104.500000,199.500000 
	C101.037529,201.403458 99.900040,205.221603 96.818886,208.159790 
	C101.398506,210.781738 105.991905,210.982452 110.500000,211.500000 
"/>
<path fill="none" opacity="1.000000" stroke="#000000" stroke-linecap="round" stroke-linejoin="round" stroke-width="3.000000"
	d="
M61.000000,196.500000 
	C62.167618,199.777252 64.174660,202.588150 66.687897,206.217834 
	C61.661633,207.454697 57.040886,206.867981 52.500000,207.000000 
"/>
<path fill="none" opacity="1.000000" stroke="#000000" stroke-linecap="round" stroke-linejoin="round" stroke-width="3.000000"
	d="
M313.500000,203.500000 
	C310.399536,202.420807 310.649597,199.245300 309.559296,196.971558 
	C307.916962,193.546631 306.670441,189.931885 305.141968,186.113815 
	C301.128265,188.486542 301.111176,192.712967 299.527527,196.013214 
	C298.357056,198.452438 297.864136,201.255692 295.500000,203.000000 
"/>
<path fill="none" opacity="1.000000" stroke="#000000" stroke-linecap="round" stroke-linejoin="round" stroke-width="3.000000"
	d="
M27.000002,143.500000 
	C28.569437,147.539352 30.138874,151.578705 31.837273,155.949982 
	C35.795254,153.408478 38.100407,149.909637 40.500000,146.500000 
"/>
<path fill="none" opacity="1.000000" stroke="#000000" stroke-linecap="round" stroke-linejoin="round" stroke-width="3.000000"
	d="
M145.500000,151.500000 
	C143.020264,155.512665 141.218521,159.949066 137.790619,163.815552 
	C134.839417,160.812714 133.334488,157.049240 131.500000,153.500000 
"/>
<path fill="none" opacity="1.000000" stroke="#000000" stroke-linecap="round" stroke-linejoin="round" stroke-width="4.000000"
	d="
M44.500000,178.500000 
	C44.500000,181.166672 44.595715,183.837601 44.476757,186.498962 
	C44.313053,190.161423 43.074318,190.830597 40.006153,188.989746 
	C37.310059,187.372116 34.666672,185.666656 32.000004,184.000000 
"/>
<path fill="none" opacity="1.000000" stroke="#000000" stroke-linecap="round" stroke-linejoin="round" stroke-width="8.000000"
	d="
M121.000000,92.500000 
	C122.374596,96.309982 124.001015,99.216026 128.973312,99.748955 
	C132.241821,100.099266 135.969086,102.215683 135.500000,107.000000 
"/>
<path fill="none" opacity="1.000000" stroke="#000000" stroke-linecap="round" stroke-linejoin="round" stroke-width="9.000000"
	d="
M62.000000,155.500000 
	C60.803429,156.568375 59.848309,157.922913 60.044010,159.494522 
	C61.120651,168.140411 60.482964,176.947144 62.333767,185.509735 
	C67.472244,186.499283 72.503082,185.952026 77.499596,185.924911 
	C80.075493,185.910950 81.882721,186.455231 82.750000,189.000000 
"/>
<path fill="none" opacity="1.000000" stroke="#000000" stroke-linecap="round" stroke-linejoin="round" stroke-width="6.000000"
	d="
M479.500000,114.500000 
	C479.500000,122.333336 479.426758,130.167664 479.532806,137.999557 
	C479.581329,141.583176 479.533051,144.960007 481.235931,148.622757 
	C483.388336,153.252335 481.743530,158.836227 482.000000,164.000000 
"/>
<path fill="none" opacity="1.000000" stroke="#000000" stroke-linecap="round" stroke-linejoin="round" stroke-width="4.000000"
	d="
M35.500000,124.500000 
	C35.590969,128.851974 34.122204,133.323929 36.555363,137.597260 
	C39.460133,137.029419 41.720535,135.246826 44.000000,133.500000 
"/>
<path fill="none" opacity="1.000000" stroke="#000000" stroke-linecap="round" stroke-linejoin="round" stroke-width="5.000000"
	d="
M311.000000,132.000000 
	C297.666656,132.000000 284.333344,132.000000 271.000000,132.000000 
"/>
<path fill="none" opacity="1.000000" stroke="#000000" stroke-linecap="round" stroke-linejoin="round" stroke-width="4.000000"
	d="
M39.500000,154.500000 
	C37.279716,157.912476 36.120918,162.067978 32.439320,164.943146 
	C29.594252,162.103836 28.684961,158.376694 26.500000,155.500000 
"/>
<path fill="none" opacity="1.000000" stroke="#000000" stroke-linecap="round" stroke-linejoin="round" stroke-width="8.000000"
	d="
M49.500000,134.500000 
	C55.061749,137.767609 61.821136,137.115677 67.500000,140.000000 
"/>
<path fill="none" opacity="1.000000" stroke="#000000" stroke-linecap="round" stroke-linejoin="round" stroke-width="3.000000"
	d="
M539.000000,185.500000 
	C539.000000,191.500000 539.000000,197.500000 539.000000,203.500000 
"/>
<path fill="none" opacity="1.000000" stroke="#000000" stroke-linecap="round" stroke-linejoin="round" stroke-width="5.000000"
	d="
M195.500000,129.000000 
	C198.914597,131.978592 199.558487,136.735779 202.519470,139.982254 
	C204.531265,142.188049 205.596161,145.665497 209.500000,145.500000 
"/>
<path fill="none" opacity="1.000000" stroke="#000000" stroke-linecap="round" stroke-linejoin="round" stroke-width="4.000000"
	d="
M116.500000,197.000000 
	C115.016068,197.179520 114.225060,197.759689 114.447281,199.506699 
	C114.623528,200.892227 115.154572,201.837860 116.485725,201.450897 
	C119.951904,200.443237 124.054443,202.161987 127.000000,199.000000 
"/>
<path fill="none" opacity="1.000000" stroke="#000000" stroke-linecap="round" stroke-linejoin="round" stroke-width="4.000000"
	d="
M322.500000,186.500000 
	C322.206085,192.162918 323.128784,197.861633 322.000000,203.500000 
"/>
<path fill="none" opacity="1.000000" stroke="#000000" stroke-linecap="round" stroke-linejoin="round" stroke-width="6.000000"
	d="
M195.500000,116.500000 
	C195.333328,120.500000 196.369736,125.106522 194.728058,128.362900 
	C192.025070,133.724442 189.628082,139.633667 184.510757,143.514191 
	C183.766525,144.078552 183.166656,144.833328 182.500000,145.500000 
"/>
<path fill="none" opacity="1.000000" stroke="#000000" stroke-linecap="round" stroke-linejoin="round" stroke-width="3.000000"
	d="
M207.500000,186.000000 
	C204.822983,186.000000 202.145950,186.000000 199.250000,186.000000 
	C199.250000,191.833328 199.250000,197.166672 199.250000,202.400894 
	C202.124054,203.348557 204.830124,202.884567 207.500000,203.000000 
"/>
<path fill="none" opacity="1.000000" stroke="#000000" stroke-linecap="round" stroke-linejoin="round" stroke-width="3.000000"
	d="
M501.500000,186.000000 
	C498.822968,186.000000 496.145966,186.000000 493.250000,186.000000 
	C493.250000,191.833328 493.250000,197.166672 493.250000,202.400894 
	C496.124054,203.348557 498.830139,202.884567 501.500000,203.000000 
"/>
<path fill="none" opacity="1.000000" stroke="#000000" stroke-linecap="round" stroke-linejoin="round" stroke-width="8.000000"
	d="
M28.500000,102.500000 
	C27.898684,110.434647 34.293137,111.373528 39.500000,113.500000 
"/>
<path fill="none" opacity="1.000000" stroke="#000000" stroke-linecap="round" stroke-linejoin="round" stroke-width="4.000000"
	d="
M105.500000,160.500000 
	C105.500000,158.000000 105.500000,155.500000 105.500000,152.821732 
	C99.539330,154.962051 94.038139,158.427856 87.542725,158.367508 
	C87.275986,165.331940 87.974449,172.181015 87.036369,179.005005 
	C86.825790,180.536819 86.680809,182.219086 88.000000,183.500000 
"/>
<path fill="none" opacity="1.000000" stroke="#000000" stroke-linecap="round" stroke-linejoin="round" stroke-width="4.000000"
	d="
M333.500000,186.500000 
	C333.500000,191.833328 333.500000,197.166672 333.500000,202.500000 
"/>
<path fill="none" opacity="1.000000" stroke="#000000" stroke-linecap="round" stroke-linejoin="round" stroke-width="4.000000"
	d="
M550.500000,186.500000 
	C550.500000,191.833328 550.500000,197.166672 550.500000,202.500000 
"/>
<path fill="none" opacity="1.000000" stroke="#000000" stroke-linecap="round" stroke-linejoin="round" stroke-width="4.000000"
	d="
M466.500000,186.500000 
	C466.500000,191.833328 466.500000,197.166672 466.500000,202.500000 
"/>
<path fill="none" opacity="1.000000" stroke="#000000" stroke-linecap="round" stroke-linejoin="round" stroke-width="3.000000"
	d="
M376.000000,185.500000 
	C375.600922,190.745819 376.927765,196.101227 375.000000,201.250000 
"/>
<path fill="none" opacity="1.000000" stroke="#000000" stroke-linecap="round" stroke-linejoin="round" stroke-width="4.000000"
	d="
M81.000000,186.000000 
	C84.846901,177.795441 83.040138,169.036560 83.499054,160.499954 
	C83.575493,159.077866 82.703087,157.993210 81.503929,158.065353 
	C75.035461,158.454559 69.796753,154.794693 64.000000,153.000000 
"/>
<path fill="none" opacity="1.000000" stroke="#000000" stroke-linecap="round" stroke-linejoin="round" stroke-width="3.000000"
	d="
M97.500000,171.000000 
	C98.611664,175.800751 97.715019,180.670746 98.000000,185.500000 
"/>
<path fill="none" opacity="1.000000" stroke="#000000" stroke-linecap="round" stroke-linejoin="round" stroke-width="3.000000"
	d="
M75.500000,171.000000 
	C70.253891,169.308594 69.277939,169.750351 68.558006,175.007950 
	C68.084496,178.465927 68.166664,182.000000 67.999992,185.500000 
"/>
<path fill="none" opacity="1.000000" stroke="#000000" stroke-linecap="round" stroke-linejoin="round" stroke-width="3.000000"
	d="
M101.500000,155.000000 
	C101.738609,156.826797 101.492287,158.632248 101.906410,160.520523 
	C103.259560,166.690567 102.179863,171.969650 93.500000,170.000000 
"/>
<path fill="none" opacity="1.000000" stroke="#000000" stroke-linecap="round" stroke-linejoin="round" stroke-width="4.000000"
	d="
M458.500000,186.500000 
	C458.234528,191.163132 459.071472,195.865646 458.000000,200.500000 
"/>
<path fill="none" opacity="1.000000" stroke="#000000" stroke-linecap="round" stroke-linejoin="round" stroke-width="4.000000"
	d="
M109.000000,156.500000 
	C109.500000,157.333328 110.552666,158.274582 110.414299,158.983261 
	C109.066742,165.884811 110.736275,172.668793 110.983269,179.500610 
	C111.033752,180.896835 111.332298,182.416412 110.000000,183.500000 
"/>
<path fill="none" opacity="1.000000" stroke="#000000" stroke-linecap="round" stroke-linejoin="round" stroke-width="3.000000"
	d="
M143.500000,141.500000 
	C141.815552,145.896317 141.053391,150.682846 137.905304,154.802124 
	C135.169403,152.268433 132.619019,149.791687 131.000000,146.500000 
"/>
<path fill="none" opacity="1.000000" stroke="#000000" stroke-linecap="round" stroke-linejoin="round" stroke-width="4.000000"
	d="
M139.500000,131.500000 
	C139.559097,136.077744 138.841843,140.476318 136.638977,144.690216 
	C132.960632,143.757797 130.770187,140.930923 128.000000,139.000000 
"/>
<path fill="none" opacity="1.000000" stroke="#000000" stroke-linecap="round" stroke-linejoin="round" stroke-width="4.000000"
	d="
M111.500000,196.500000 
	C108.255943,198.840530 106.654968,201.959366 106.448654,206.500000 
	C111.153366,206.500000 115.326683,206.500000 119.500000,206.500000 
"/>
<path fill="none" opacity="1.000000" stroke="#000000" stroke-linecap="round" stroke-linejoin="round" stroke-width="3.000000"
	d="
M91.000000,98.000000 
	C94.500000,101.000000 98.000000,104.000000 101.500000,107.000000 
"/>
<path fill="none" opacity="1.000000" stroke="#000000" stroke-linecap="round" stroke-linejoin="round" stroke-width="3.000000"
	d="
M71.500000,215.500000 
	C73.333336,214.833344 75.394386,214.502701 76.960335,213.441467 
	C83.512657,209.001053 89.725197,211.158859 96.009529,213.978775 
	C97.444878,214.622849 99.000000,215.000000 100.500000,215.500000 
"/>
<path fill="none" opacity="1.000000" stroke="#000000" stroke-linecap="round" stroke-linejoin="round" stroke-width="5.000000"
	d="
M68.500000,99.500000 
	C66.152466,102.888039 62.388405,105.399170 62.000000,110.000000 
"/>
<path fill="none" opacity="1.000000" stroke="#000000" stroke-linecap="round" stroke-linejoin="round" stroke-width="6.000000"
	d="
M30.500000,101.000000 
	C37.067390,103.348686 41.958549,107.311516 43.500000,114.500000 
"/>
<path fill="none" opacity="1.000000" stroke="#000000" stroke-linecap="round" stroke-linejoin="round" stroke-width="5.000000"
	d="
M60.500000,124.500000 
	C61.341343,129.370331 66.658661,131.629669 67.500000,136.500000 
"/>
<path fill="none" opacity="1.000000" stroke="#000000" stroke-linecap="round" stroke-linejoin="round" stroke-width="6.000000"
	d="
M535.500000,160.500000 
	C548.500000,160.500000 561.500000,160.500000 574.500000,160.500000 
"/>
<path fill="none" opacity="1.000000" stroke="#000000" stroke-linecap="round" stroke-linejoin="round" stroke-width="4.000000"
	d="
M27.500000,173.500000 
	C30.587688,176.962769 33.903355,180.112045 38.299892,181.832336 
	C41.094860,178.268295 39.963730,174.020416 41.500000,170.500000 
"/>
<path fill="none" opacity="1.000000" stroke="#000000" stroke-linecap="round" stroke-linejoin="round" stroke-width="3.000000"
	d="
M126.500000,177.500000 
	C127.421509,181.282181 126.106865,185.258820 127.510735,189.207794 
	C132.037964,188.075912 135.317276,184.634537 139.500000,183.000000 
"/>
<path fill="none" opacity="1.000000" stroke="#000000" stroke-linecap="round" stroke-linejoin="round" stroke-width="3.000000"
	d="
M78.000000,98.000000 
	C74.270775,100.732574 71.547447,104.638687 67.500000,107.000000 
"/>
<path fill="none" opacity="1.000000" stroke="#000000" stroke-linecap="round" stroke-linejoin="round" stroke-width="5.000000"
	d="
M467.000000,118.000000 
	C459.333344,118.000000 451.666656,118.000000 444.000000,118.000000 
"/>
<path fill="none" opacity="1.000000" stroke="#000000" stroke-linecap="round" stroke-linejoin="round" stroke-width="4.000000"
	d="
M129.500000,169.500000 
	C130.344284,173.206116 131.188553,176.912231 132.140610,181.091476 
	C136.809128,179.132782 139.881271,176.033768 143.000000,173.000000 
"/>
<path fill="none" opacity="1.000000" stroke="#000000" stroke-linecap="round" stroke-linejoin="round" stroke-width="5.000000"
	d="
M222.500000,130.000000 
	C219.000000,130.000000 215.500000,130.000000 212.000000,130.000000 
"/>
<path fill="none" opacity="1.000000" stroke="#000000" stroke-linecap="round" stroke-linejoin="round" stroke-width="3.000000"
	d="
M559.500000,185.500000 
	C563.746826,187.095398 563.924377,192.307953 567.500000,194.500000 
"/>
<path fill="none" opacity="1.000000" stroke="#000000" stroke-linecap="round" stroke-linejoin="round" stroke-width="3.000000"
	d="
M191.500000,185.999985 
	C190.166672,185.833328 188.830521,185.512756 187.500671,185.537003 
	C185.628891,185.571136 184.457718,186.643112 183.990051,188.497498 
	C183.590332,190.082474 184.434692,191.144516 185.520569,191.973038 
	C186.765182,192.922653 188.196548,193.622971 189.493500,194.509506 
	C191.859573,196.126877 193.295776,198.682556 191.347214,200.863495 
	C189.652618,202.760147 186.742279,204.967422 184.000000,201.500000 
"/>
<path fill="none" opacity="1.000000" stroke="#000000" stroke-linecap="round" stroke-linejoin="round" stroke-width="3.000000"
	d="
M531.500000,185.999985 
	C530.166687,185.833328 528.830505,185.512772 527.500671,185.537018 
	C525.628845,185.571152 524.457764,186.643097 523.990051,188.497482 
	C523.590271,190.082474 524.434692,191.144516 525.520569,191.973038 
	C526.765137,192.922638 528.149292,193.696213 529.503723,194.493713 
	C532.168762,196.062927 532.941406,198.911102 531.320740,200.850189 
	C529.711365,202.775787 526.742249,204.967270 524.000000,201.500000 
"/>
<path fill="none" opacity="1.000000" stroke="#000000" stroke-linecap="round" stroke-linejoin="round" stroke-width="4.000000"
	d="
M25.499998,163.500000 
	C27.166666,165.666672 28.662210,167.997086 30.541162,169.960602 
	C33.185726,172.724213 35.911488,172.097015 37.470528,168.487274 
	C38.303326,166.559021 38.833332,164.500000 39.500000,162.500000 
"/>
<path fill="none" opacity="1.000000" stroke="#000000" stroke-linecap="round" stroke-linejoin="round" stroke-width="3.000000"
	d="
M575.500000,185.500000 
	C569.996033,189.831451 566.442200,195.080658 567.500000,202.500000 
"/>
<path fill="none" opacity="1.000000" stroke="#000000" stroke-linecap="round" stroke-linejoin="round" stroke-width="4.000000"
	d="
M131.500000,162.500000 
	C132.821976,165.913437 133.369263,169.675491 136.026352,172.615250 
	C139.444336,170.718643 140.835724,167.012665 143.500000,164.500000 
"/>
<path fill="none" opacity="1.000000" stroke="#000000" stroke-linecap="round" stroke-linejoin="round" stroke-width="5.000000"
	d="
M110.500000,102.500000 
	C112.166664,105.500000 113.833336,108.500000 115.500000,111.500000 
"/>
<path fill="none" opacity="1.000000" stroke="#000000" stroke-linecap="round" stroke-linejoin="round" stroke-width="2.000000"
	d="
M97.500000,157.000000 
	C97.500000,160.166672 97.500000,163.333328 97.500000,166.500000 
"/>
<path fill="none" opacity="1.000000" stroke="#000000" stroke-linecap="round" stroke-linejoin="round" stroke-width="4.000000"
	d="
M102.500000,101.500000 
	C104.871307,104.132462 107.242615,106.764915 109.558769,109.336136 
	C108.567497,112.635002 104.966019,110.432037 103.500000,112.500000 
"/>
<path fill="none" opacity="1.000000" stroke="#000000" stroke-linecap="round" stroke-linejoin="round" stroke-width="2.000000"
	d="
M65.500000,154.000000 
	C65.500000,157.166672 65.500000,160.333328 65.500000,163.500000 
"/>
<path fill="none" opacity="1.000000" stroke="#000000" stroke-linecap="round" stroke-linejoin="round" stroke-width="3.000000"
	d="
M96.499992,202.500000 
	C93.666664,205.166656 90.833328,207.833328 87.999992,210.500000 
"/>
<path fill="none" opacity="1.000000" stroke="#000000" stroke-linecap="round" stroke-linejoin="round" stroke-width="3.000000"
	d="
M385.000000,197.500000 
	C388.166656,198.203247 391.333344,198.414810 394.500000,197.500000 
"/>
<path fill="none" opacity="1.000000" stroke="#000000" stroke-linecap="round" stroke-linejoin="round" stroke-width="3.000000"
	d="
M123.500000,105.500000 
	C124.522362,109.923210 127.775421,110.380737 131.500000,110.000000 
"/>
<path fill="none" opacity="1.000000" stroke="#000000" stroke-linecap="round" stroke-linejoin="round" stroke-width="4.000000"
	d="
M57.500000,142.500000 
	C60.355606,144.132889 63.484283,143.308121 66.500000,143.500000 
"/>
<path fill="none" opacity="1.000000" stroke="#000000" stroke-linecap="round" stroke-linejoin="round" stroke-width="8.000000"
	d="
M108.000000,125.500000 
	C109.028931,131.821671 107.175804,137.525772 104.250000,143.000000 
"/>
<path fill="none" opacity="1.000000" stroke="#000000" stroke-linecap="round" stroke-linejoin="round" stroke-width="3.000000"
	d="
M300.000000,197.500000 
	C303.000000,198.301453 306.000000,198.301453 309.000000,197.500000 
"/>
<path fill="none" opacity="1.000000" stroke="#000000" stroke-linecap="round" stroke-linejoin="round" stroke-width="3.000000"
	d="
M131.500000,119.500008 
	C125.500000,119.333336 119.500000,119.166672 113.500000,119.000008 
"/>
<path fill="none" opacity="1.000000" stroke="#000000" stroke-linecap="round" stroke-linejoin="round" stroke-width="3.000000"
	d="
M132.000000,111.000000 
	C131.440887,114.735466 132.717194,117.369682 136.500000,118.500000 
"/>
<path fill="none" opacity="1.000000" stroke="#000000" stroke-linecap="round" stroke-linejoin="round" stroke-width="3.000000"
	d="
M75.999992,203.000000 
	C78.499992,205.500000 80.999992,208.000000 83.499992,210.500000 
"/>
<path fill="none" opacity="1.000000" stroke="#000000" stroke-linecap="round" stroke-linejoin="round" stroke-width="3.000000"
	d="
M122.500000,120.000000 
	C122.500000,122.833336 122.500000,125.666664 122.500000,128.500000 
"/>
<path fill="none" opacity="1.000000" stroke="#000000" stroke-linecap="round" stroke-linejoin="round" stroke-width="3.000000"
	d="
M122.000000,110.500000 
	C122.000000,113.333336 122.000000,116.166664 122.000000,119.000000 
"/>
<path fill="none" opacity="1.000000" stroke="#000000" stroke-linecap="round" stroke-linejoin="round" stroke-width="3.000000"
	d="
M111.000000,122.500000 
	C113.833336,125.333336 116.666664,128.166672 119.500000,131.000000 
"/>
<path fill="none" opacity="1.000000" stroke="#000000" stroke-linecap="round" stroke-linejoin="round" stroke-width="3.000000"
	d="
M514.000000,195.000000 
	C516.700378,197.070572 516.269531,201.293884 519.500000,203.000000 
"/>
<path fill="none" opacity="1.000000" stroke="#000000" stroke-linecap="round" stroke-linejoin="round" stroke-width="2.000000"
	d="
M94.500000,177.500000 
	C94.500000,180.166672 94.500000,182.833328 94.500000,185.500000 
"/>
<path fill="none" opacity="1.000000" stroke="#000000" stroke-linecap="round" stroke-linejoin="round" stroke-width="3.000000"
	d="
M59.500000,131.500000 
	C55.166668,128.300568 50.833332,130.939117 46.500000,131.500000 
"/>
<path fill="none" opacity="1.000000" stroke="#000000" stroke-linecap="round" stroke-linejoin="round" stroke-width="3.000000"
	d="
M68.500000,161.500000 
	C68.625893,164.224075 68.140518,166.871735 67.358910,169.482666 
	C65.414589,170.358307 63.420094,170.125549 61.500000,169.000000 
"/>
<path fill="none" opacity="1.000000" stroke="#000000" stroke-linecap="round" stroke-linejoin="round" stroke-width="3.000000"
	d="
M109.000000,133.500000 
	C111.500000,133.500000 114.000000,133.500000 116.500000,133.500000 
"/>
<path fill="none" opacity="1.000000" stroke="#000000" stroke-linecap="round" stroke-linejoin="round" stroke-width="3.000000"
	d="
M200.000000,193.500000 
	C202.445328,194.486801 205.002274,193.799179 207.500000,194.000000 
"/>
<path fill="none" opacity="1.000000" stroke="#000000" stroke-linecap="round" stroke-linejoin="round" stroke-width="3.000000"
	d="
M494.000000,193.500000 
	C496.445312,194.486801 499.002289,193.799179 501.500000,194.000000 
"/>
<path fill="none" opacity="1.000000" stroke="#000000" stroke-linecap="round" stroke-linejoin="round" stroke-width="3.000000"
	d="
M82.000000,131.500000 
	C84.102928,133.365204 84.294922,136.185867 85.500000,138.500000 
"/>
<path fill="none" opacity="1.000000" stroke="#000000" stroke-linecap="round" stroke-linejoin="round" stroke-width="3.000000"
	d="
M131.000000,124.000000 
	C128.994247,124.998085 130.313461,127.104485 129.480316,128.500000 
	C128.166672,128.500000 126.833336,128.500000 125.500000,128.500000 
"/>
<path fill="none" opacity="1.000000" stroke="#000000" stroke-linecap="round" stroke-linejoin="round" stroke-width="3.000000"
	d="
M82.000000,142.500000 
	C82.000000,144.666672 82.000000,146.833328 82.000000,149.000000 
"/>
<path fill="none" opacity="1.000000" stroke="#000000" stroke-linecap="round" stroke-linejoin="round" stroke-width="4.000000"
	d="
M557.500000,186.000000 
	C553.196655,185.054260 548.830139,185.749573 544.500000,185.500000 
"/>
<path fill="none" opacity="1.000000" stroke="#000000" stroke-linecap="round" stroke-linejoin="round" stroke-width="4.000000"
	d="
M327.500000,185.500000 
	C323.833344,185.500000 320.166656,185.500000 316.500000,185.500000 
"/>
<path fill="none" opacity="1.000000" stroke="#000000" stroke-linecap="round" stroke-linejoin="round" stroke-width="2.000000"
	d="
M103.000000,179.500000 
	C104.049225,181.426453 103.266380,183.505585 103.500000,185.500000 
"/>
<path fill="none" opacity="1.000000" stroke="#000000" stroke-linecap="round" stroke-linejoin="round" stroke-width="3.000000"
	d="
M91.500000,179.500000 
	C89.869041,181.405670 92.491379,184.292877 90.000000,186.000000 
"/>
<path fill="none" opacity="1.000000" stroke="#000000" stroke-linecap="round" stroke-linejoin="round" stroke-width="2.000000"
	d="
M79.000000,159.000000 
	C80.023293,162.459213 79.129395,166.009705 79.500000,169.500000 
"/>
<path fill="none" opacity="1.000000" stroke="#000000" stroke-linecap="round" stroke-linejoin="round" stroke-width="3.000000"
	d="
M107.000000,180.500000 
	C107.411316,182.319153 106.061699,184.458481 108.000000,186.000000 
"/>
<path fill="none" opacity="1.000000" stroke="#000000" stroke-linecap="round" stroke-linejoin="round" stroke-width="3.000000"
	d="
M113.500000,115.000000 
	C110.833336,115.333336 108.166664,115.666664 105.500000,116.000000 
"/>
<path fill="none" opacity="1.000000" stroke="#000000" stroke-linecap="round" stroke-linejoin="round" stroke-width="2.000000"
	d="
M76.500000,167.500000 
	C76.233818,168.652451 77.074150,169.962967 76.000000,171.000000 
"/>
<path fill="none" opacity="1.000000" stroke="#000000" stroke-linecap="round" stroke-linejoin="round" stroke-width="3.000000"
	d="
M219.000000,185.500000 
	C212.513779,190.139343 211.454666,197.066711 216.487991,201.513580 
	C218.980423,203.715607 221.865707,203.402512 224.465149,202.408829 
	C227.885376,201.101379 229.622070,195.520706 228.500000,191.000000 
	C227.561523,187.218994 224.839203,185.555344 219.500000,185.500000 
"/>
<path fill="none" opacity="1.000000" stroke="#000000" stroke-linecap="round" stroke-linejoin="round" stroke-width="5.000000"
	d="
M455.500000,123.500000 
	C451.589935,124.589943 448.357635,126.263412 447.967529,130.997330 
	C447.655212,134.787109 449.668091,137.411530 452.563293,138.874771 
	C455.654175,140.436935 458.967255,139.739914 461.497589,136.997787 
	C463.817566,134.483627 464.415405,129.805771 462.461578,127.533043 
	C460.771362,125.566986 459.026154,123.436684 456.000000,123.500000 
"/>
<path fill="none" opacity="1.000000" stroke="#000000" stroke-linecap="round" stroke-linejoin="round" stroke-width="3.000000"
	d="
M347.000000,185.500000 
	C341.349609,188.288239 338.800812,194.544357 341.500000,199.000000 
	C343.400085,202.136520 347.914642,203.799789 351.000000,202.499985 
	C354.856659,200.875259 357.951355,195.066071 356.433990,191.528320 
	C354.819580,187.764252 352.280884,184.828659 347.500000,185.500000 
"/>
<path fill="none" opacity="1.000000" stroke="#000000" stroke-linecap="round" stroke-linejoin="round" stroke-width="5.000000"
	d="
M290.000000,109.000000 
	C286.419159,110.274376 283.467041,111.955734 283.448059,116.499786 
	C283.433563,119.972069 284.260223,122.801765 287.503357,124.493546 
	C290.153503,125.875992 292.988861,126.084641 295.460602,124.440758 
	C298.541870,122.391479 300.282623,119.388107 299.475464,115.505104 
	C298.790466,112.209717 296.562836,110.133881 293.483032,109.048103 
	C292.593597,108.734528 291.500000,109.000000 290.500000,109.000000 
"/>
</svg>